<!-- Generated by IcoMoon.io -->
<svg version="1.1" xmlns="http://www.w3.org/2000/svg" width="1024" height="1024" viewBox="0 0 1024 1024">
<title></title>
<g id="icomoon-ignore">
</g>
<path d="M1024.001 227.037h-135.757v135.759h-67.88v-135.759h-135.759v-67.88h135.759v-135.754h67.88v135.757h135.757v67.878zM640.207 788.53c0 101.761-92.916 225.645-326.671 225.645-170.959 0-313.536-73.738-313.536-197.763 0-95.724 60.602-219.989 343.793-219.989-42.058-34.279-52.381-82.211-26.676-134.113-165.814 0-250.728-97.483-250.728-221.26 0-121.117 90.077-231.225 273.771-231.225 46.378 0 294.27 0 294.27 0l-65.757 69.021h-77.245c54.494 31.222 83.476 95.522 83.476 166.397 0 65.057-35.822 117.747-86.948 157.276-90.726 70.143-67.5 109.31 27.555 178.633 93.721 70.217 124.694 124.418 124.694 207.378zM456.671 249.669c-13.685-104.152-81.537-189.598-160.818-191.982-79.308-2.355-132.496 77.343-118.799 181.524 13.692 104.152 89.063 176.907 168.386 179.297 79.278 2.355 124.91-64.673 111.231-168.838zM538.424 798.976c0-85.664-78.144-167.312-209.253-167.312-118.162-1.297-218.301 74.668-218.301 162.724 0 89.859 85.337 164.66 203.505 164.66 151.067-0.002 224.050-70.213 224.050-160.071z"></path>
</svg>
