<!-- Generated by IcoMoon.io -->
<svg version="1.1" xmlns="http://www.w3.org/2000/svg" width="1024" height="1024" viewBox="0 0 1024 1024">
<title></title>
<g id="icomoon-ignore">
</g>
<path fill="#000" d="M506.445 356.193c-65.439-181.294 229.089-353.652 350.449-188.192 0 0 47.043-1.689 132.892-47.914 0 0-20.471 65.368-86.51 108.626 0 0 50.19-0.325 110.944-27.4 0 0-38.302 62.076-97.736 103.679 0 0-1.321 93.115-15.188 151.228s-60.096 219.906-198.774 333.492-307.739 138.681-403.493 132.076c-95.754-6.602-213.303-42.925-289.248-89.812 0 0 173.679 18.491 301.792-87.171 0 0-129.434 5.944-190.849-143.303 0 0 44.246 7.925 91.793-5.283 0 0-163.115-29.717-165.097-205.379 0 0 53.49 26.415 93.115 23.773 0 0-155.85-118.869-60.754-272.736 0 0 155.969 206.74 426.665 214.314z"></path>
<path fill="none" stroke-linejoin="round" stroke-linecap="round" stroke-miterlimit="10" stroke-width="14.9333" stroke="#000" d="M506.445 356.193c-65.439-181.294 229.089-353.652 350.449-188.192 0 0 47.043-1.689 132.892-47.914 0 0-20.471 65.368-86.51 108.626 0 0 50.19-0.325 110.944-27.4 0 0-38.302 62.076-97.736 103.679 0 0-1.321 93.115-15.188 151.228s-60.096 219.906-198.774 333.492-307.739 138.681-403.493 132.076c-95.754-6.602-213.303-42.925-289.248-89.812 0 0 173.679 18.491 301.792-87.171 0 0-129.434 5.944-190.849-143.303 0 0 44.246 7.925 91.793-5.283 0 0-163.115-29.717-165.097-205.379 0 0 53.49 26.415 93.115 23.773 0 0-152.862-116.589-63.433-268.301 1.216-2.062 4.257-2.395 5.765-0.536 23.102 28.48 174.95 203.456 423.578 210.412z"></path>
<path fill="none" stroke-linejoin="round" stroke-linecap="round" stroke-miterlimit="10" stroke-width="14.9333" stroke="#000" d="M702.409 691.135c-8.121 9.541-16.891 18.962-26.359 28.116"></path>
<path fill="none" stroke-linejoin="round" stroke-linecap="round" stroke-miterlimit="10" stroke-width="14.9333" stroke="#000" d="M810.718 505.879c-8.149 26.16-27.752 81.831-68.009 138.195"></path>
</svg>
